<svg version="1.1" id="Layer_1" xmlns="http://www.w3.org/2000/svg" xmlns:xlink="http://www.w3.org/1999/xlink" x="0px" y="0px"
		width="1000px" height="1000px" viewBox="0 0 1000 1000" xml:space="preserve" style="position: absolute; margin-left: -100%;stroke:#ccc;stroke-width:2px;">


	<mask id="mask2">
	
		<!-- L -->
		<line id="l1" fill="none" x1="165" y1="435" x2="165" y2="565" x1e="165" y1e="435" x2e="165" y2e="565" />

		<line id="l2" fill="none" x1="241.758" y1="565" x2="163.164" y2="565" x1e="211" y1e="435" x2e="211" y2e="565" />


		<!-- O -->
		<path id="o1" fill="none" d="M304.783,434.547 c-72.952,-1.643,-79.275,130.933,0,130.921" d2="M257,434.547c0,0,0,116.953,0,130.921" />

		<path id="o2" fill="none" d="M304.783,434.547c72.945,-1.643,79.269,130.933,0,130.921" d2="M303,434.547c0,0,0,116.953,0,130.921" />


		<!-- A -->
		<line id="a1" fill="none" x1="369.308" y1="565" x2="421.327" y2="435" x1e="349" y1e="565" x2e="349" y2e="435" />

		<line id="a2" fill="none" x1="472.825" y1="565" x2="422.718" y2="435" x1e="395" y1e="565" x2e="395" y2e="435" />

		<line id="a3" fill="none" x1="386.5" y1="520.379" x2="455.654" y2="520.379" x1e="441" y1e="565" x2e="441" y2e="435" />

		<!-- D -->
		<line id="d1" fill="none" x1="490.387" y1="435" x2="490.387" y2="565" x1e="487" y1e="435" x2e="487" y2e="565" />
		<path id="d2" fill="none" d="M490,436 c117.177,-0.025,117.11,125.438,-0.066,128" d2="M533,435c-0.066,4.213,-0.066,119.547,0,130.921"/>



		<!-- I -->
		<line id="i1" fill="none" x1="600.993" y1="435" x2="600.993" y2="565" x1e="579" y1e="435" x2e="579" y2e="565" />

		<!-- N -->
		<line id="n1" fill="none" x1="625.529" y1="565" x2="625.529" y2="435" x1e="627" y1e="565" x2e="627" y2e="435" />
		<line id="n2" fill="none" x1="625.771" y1="435" x2="718.609" y2="565"  x1e="673" y1e="435" x2e="673" y2e="565" />
		<line id="n3" fill="none" x1="718.893" y1="435" x2="718.893" y2="565" x1e="719" y1e="435" x2e="719" y2e="565" />




		<line id="g1" fill="none" x1="796.983" y1="504.984" x2="850.393" y2="504.984" x1e="765" y1e="435" x2e="765" y2e="565" />
		<path id="g2" fill="none" d="M850.038,476.075c-156.441,-157.38,-133.058,224.829,1.558,28.236" d2="M811,434.547c0,0,0,116.953,0,130.921" />

	</mask>
</svg>